<svg xmlns="http://www.w3.org/2000/svg" xmlns:xlink="http://www.w3.org/1999/xlink" width="207" height="982.26" viewBox="0 0 207 982.26">
  <defs>
    <filter id="パス_1" x="0" y="0" width="207" height="982.26" filterUnits="userSpaceOnUse">
      <feOffset input="SourceAlpha"/>
      <feGaussianBlur stdDeviation="15" result="blur"/>
      <feFlood flood-color="#fff" flood-opacity="0.502"/>
      <feComposite operator="in" in2="blur"/>
      <feComposite in="SourceGraphic"/>
    </filter>
  </defs>
  <g transform="matrix(1, 0, 0, 1, 0, 0)" filter="url(#パス_1)">
    <path id="パス_1-2" data-name="パス 1" d="M110.52-112.5q.36,0,.36,1.08t-.36,1.08q-6.48,0-13.14,4.77A45.763,45.763,0,0,0,85.5-92.52L61.38-55.44v40.86q0,5.58,1.08,8.1a6.081,6.081,0,0,0,4.23,3.42,39.831,39.831,0,0,0,9.99.9q.54,0,.54,1.08T76.68,0Q71.1,0,68.04-.18L55.44-.36,43.02-.18Q39.78,0,34.2,0q-.54,0-.54-1.08t.54-1.08a39.831,39.831,0,0,0,9.99-.9,6.327,6.327,0,0,0,4.32-3.51q1.17-2.61,1.17-8.01V-52.56L19.8-96.3q-5.04-7.92-9.54-10.98A18.118,18.118,0,0,0-.18-110.34q-.54,0-.54-1.08t.54-1.08q2.16,0,6.48.36l6.3.18q6.12,0,15.48-.36l9.72-.18q.36,0,.36,1.08t-.36,1.08q-9.36,0-9.36,3.78a8.059,8.059,0,0,0,1.8,4.5L59.22-59.58,81.18-93.24q3.96-6.3,3.96-10.62,0-6.48-9.72-6.48-.36,0-.36-1.08t.36-1.08l8.46.18q6.84.36,12.6.36,3.06,0,7.38-.36ZM170.28,2.16q-16.74,0-29.79-7.83a53.632,53.632,0,0,1-20.16-21.24,61.474,61.474,0,0,1-7.11-29.25q0-18.54,9.36-31.77a58.653,58.653,0,0,1,24.03-19.89,71.813,71.813,0,0,1,29.97-6.66q17.1,0,30.06,8.01a54.288,54.288,0,0,1,19.89,21.15,58.957,58.957,0,0,1,6.93,27.9,55.18,55.18,0,0,1-8.64,30.06,62.075,62.075,0,0,1-23.13,21.6A64.444,64.444,0,0,1,170.28,2.16Zm6.3-3.78a41.732,41.732,0,0,0,22.05-5.94,40.852,40.852,0,0,0,15.48-17.46q5.67-11.52,5.67-27.36,0-16.92-6.3-30.06a49.022,49.022,0,0,0-17.73-20.52q-11.43-7.38-26.73-7.38-19.8,0-30.96,12.78T126.9-62.46a74.145,74.145,0,0,0,6.3,30.87A52.784,52.784,0,0,0,150.84-9.63,43.526,43.526,0,0,0,176.58-1.62ZM345.24-92.7q0-17.64-15.66-17.64-.54,0-.54-1.08t.54-1.08l7.74.18q6.48.36,10.26.36,3.06,0,8.82-.36l7.56-.18q.36,0,.36,1.08t-.36,1.08q-14.4,0-14.4,17.64v51.12q0,20.7-11.52,32.31T307.08,2.34q-13.32,0-23.31-5.22a37.32,37.32,0,0,1-15.48-14.85q-5.49-9.63-5.49-22.59v-57.6q0-5.4-1.08-7.92a6.34,6.34,0,0,0-4.23-3.51q-3.15-.99-9.99-.99-.36,0-.36-1.08t.36-1.08l8.82.18q7.56.36,12.24.36,5.04,0,12.6-.36l8.64-.18q.54,0,.54,1.08t-.54,1.08a33.587,33.587,0,0,0-9.9,1.08,6.591,6.591,0,0,0-4.32,3.69,22.229,22.229,0,0,0-1.08,8.01v50.94q0,21.06,9.63,32.31T311.04-3.06q16.2,0,25.2-10.17t9-28.17ZM556.2-2.16q.54,0,.54,1.08T556.2,0q-5.58,0-8.82-.18L534.96-.36l-11.52.18q-2.88.18-8.1.18-.36,0-.36-1.08t.36-1.08a30.856,30.856,0,0,0,9.09-.99,5.993,5.993,0,0,0,3.96-3.51q.99-2.52.63-7.92l-3.24-81.9L484.74-1.26a1.451,1.451,0,0,1-1.44.72,2.238,2.238,0,0,1-1.62-.72L437.4-95.4l-1.62,75.78q-.18,9.54,3.24,13.5t12.06,3.96q.36,0,.36,1.08T451.08,0q-5.04,0-7.74-.18l-9.72-.18-9.36.18q-2.52.18-7.2.18-.36,0-.36-1.08t.36-1.08q7.56,0,10.89-4.05t3.51-13.41l1.62-83.52a17.454,17.454,0,0,0-14.76-7.2q-.36,0-.36-1.08t.36-1.08l6.66.18q1.8.18,5.04.18t5.49-.18q2.25-.18,3.51-.18a4.968,4.968,0,0,1,3.87,1.71q1.53,1.71,4.41,7.65l40.14,84.6L526.68-108q1.98-4.5,5.4-4.5.9,0,2.61.18t4.59.18l8.46-.18q1.98-.18,5.94-.18.54,0,.54,1.08t-.54,1.08q-9,0-12.87,2.61t-3.69,9.81l3.6,83.34q.18,5.58,1.35,8.1a6.34,6.34,0,0,0,4.23,3.42A38.69,38.69,0,0,0,556.2-2.16Zm130.14,0q.72,0,.72,1.08T686.34,0q-3.42,0-10.62-.36T665.28-.72q-3.96,0-10.08.36-5.76.36-8.82.36-.72,0-.72-1.08t.72-1.08q6.66,0,9.72-1.26a4.4,4.4,0,0,0,3.06-4.32q0-2.52-2.34-7.74L640.8-49.5H597.96L586.62-22.86q-2.52,6.12-2.52,9.9a8.832,8.832,0,0,0,4.41,8.19q4.41,2.61,13.23,2.61.9,0,.9,1.08T601.74,0q-3.24,0-9.36-.36-6.84-.36-11.88-.36-4.68,0-10.8.36-5.4.36-9,.36-.9,0-.9-1.08t.9-1.08a17.827,17.827,0,0,0,8.55-1.89,19.479,19.479,0,0,0,6.66-6.66,87.385,87.385,0,0,0,6.93-13.77l37.98-89.64a1.4,1.4,0,0,1,1.26-.54q.9,0,1.08.54l42.48,89.46q6.12,13.32,10.44,17.91A13.623,13.623,0,0,0,686.34-2.16ZM599.4-53.1h39.78L618.12-97.56ZM802.26-2.16q.54,0,.54,1.08T802.26,0H782.1q-1.44,0-5.13.09T766.62-9.09q-6.66-9.27-12.78-17.01L726.3-60.84l-5.94,5.76v40.5a22.228,22.228,0,0,0,1.08,8.01,6.046,6.046,0,0,0,4.23,3.51,39.832,39.832,0,0,0,9.99.9q.54,0,.54,1.08T735.66,0q-5.4,0-8.64-.18l-12.6-.18-12.24.18q-3.24.18-9,.18-.36,0-.36-1.08t.36-1.08a39.831,39.831,0,0,0,9.99-.9,6.327,6.327,0,0,0,4.32-3.51q1.17-2.61,1.17-8.01V-97.92q0-5.4-1.08-7.92a6.34,6.34,0,0,0-4.23-3.51q-3.15-.99-9.99-.99-.36,0-.36-1.08t.36-1.08l9,.18q7.56.36,12.06.36,5.22,0,12.78-.36l8.46-.18q.54,0,.54,1.08t-.54,1.08q-6.66,0-9.81,1.08a6.883,6.883,0,0,0-4.32,3.69q-1.17,2.61-1.17,8.01v37.98l38.52-38.34q5.94-5.94,5.94-8.82,0-3.6-10.62-3.6-.36,0-.36-1.08t.36-1.08l7.74.18q7.2.36,13.14.36t12.42-.36l6.66-.18q.54,0,.54,1.08t-.54,1.08a43.035,43.035,0,0,0-15.66,3.24,46.44,46.44,0,0,0-15.48,10.26l-28.44,27.9L760.5-35.82q13.14,17.1,20.07,24.12t10.71,8.28A36.61,36.61,0,0,0,802.26-2.16Zm87.12-24.66q0-.36.72-.36a2.643,2.643,0,0,1,.99.18q.45.18.45.54A167.967,167.967,0,0,0,889.92-2.7a2.848,2.848,0,0,1-.63,2.07,3.152,3.152,0,0,1-2.25.63H811.62q-.36,0-.36-1.08t.36-1.08a39.831,39.831,0,0,0,9.99-.9,6.327,6.327,0,0,0,4.32-3.51q1.17-2.61,1.17-8.01V-97.92q0-5.4-1.17-7.92a6.648,6.648,0,0,0-4.32-3.51q-3.15-.99-9.99-.99-.36,0-.36-1.08t.36-1.08h72.36a1.432,1.432,0,0,1,1.62,1.62l.36,22.14q0,.54-.9.63t-1.08-.45q-.54-9.54-5.76-14.85t-13.86-5.31H853.38a31.7,31.7,0,0,0-9.27.99,6.66,6.66,0,0,0-4.14,3.42,17.5,17.5,0,0,0-1.17,7.29v36.54h21.96q8.64,0,12.33-2.88t3.69-9.72q0-.36,1.08-.36t1.08.36l-.18,14.58q0,5.22.18,7.92l.18,8.64q0,.36-1.08.36t-1.08-.36q0-7.92-3.87-11.34T860.22-56.7H838.8v41.4q0,5.04,1.08,7.38a6.077,6.077,0,0,0,3.96,3.24,32.739,32.739,0,0,0,9,.9h14.4a18.954,18.954,0,0,0,14.4-6.12Q887.4-16.02,889.38-26.82Z" transform="translate(47.34 45.72) rotate(90)" fill="#3ba2d8"/>
  </g>
</svg>
