<svg xmlns="http://www.w3.org/2000/svg" xmlns:xlink="http://www.w3.org/1999/xlink" width="165.121" height="662.883" viewBox="0 0 165.121 662.883">
  <defs>
    <filter id="パス_386" x="0" y="0" width="165.121" height="662.883" filterUnits="userSpaceOnUse">
      <feOffset input="SourceAlpha"/>
      <feGaussianBlur stdDeviation="15" result="blur"/>
      <feFlood flood-color="#fff" flood-opacity="0.502"/>
      <feComposite operator="in" in2="blur"/>
      <feComposite in="SourceGraphic"/>
    </filter>
  </defs>
  <g transform="matrix(1, 0, 0, 1, 0, 0)" filter="url(#パス_386)">
    <path id="パス_386-2" data-name="パス 386" d="M70.7-113.273q.231,0,.231.693t-.231.693a14.485,14.485,0,0,0-8.437,3.063,29.383,29.383,0,0,0-7.628,8.379L39.152-76.637V-50.4a14.206,14.206,0,0,0,.693,5.2,3.9,3.9,0,0,0,2.716,2.2,25.574,25.574,0,0,0,6.414.578q.347,0,.347.693t-.347.693q-3.583,0-5.547-.116l-8.09-.116-7.974.116q-2.08.116-5.663.116-.347,0-.347-.693t.347-.693a25.574,25.574,0,0,0,6.414-.578,4.062,4.062,0,0,0,2.774-2.254A13.263,13.263,0,0,0,31.64-50.4V-74.788L12.455-102.872q-3.236-5.085-6.125-7.05a11.633,11.633,0,0,0-6.7-1.965q-.347,0-.347-.693t.347-.693q1.387,0,4.161.231l4.045.116q3.929,0,9.939-.231l6.241-.116q.231,0,.231.693t-.231.693q-6.01,0-6.01,2.427a5.174,5.174,0,0,0,1.156,2.889L37.765-79.3l14.1-21.612q2.543-4.045,2.543-6.819,0-4.161-6.241-4.161-.231,0-.231-.693t.231-.693l5.432.116q4.392.231,8.09.231,1.965,0,4.738-.231Zm38.369,73.618a36.448,36.448,0,0,1-19.127-5.027A34.435,34.435,0,0,1,77-58.319,39.47,39.47,0,0,1,72.436-77.1q0-11.9,6.01-20.4a37.659,37.659,0,0,1,15.429-12.771,46.109,46.109,0,0,1,19.243-4.276,35.955,35.955,0,0,1,19.3,5.143,34.856,34.856,0,0,1,12.771,13.58,37.854,37.854,0,0,1,4.449,17.913,35.429,35.429,0,0,1-5.547,19.3A39.856,39.856,0,0,1,129.239-44.74,41.377,41.377,0,0,1,109.072-39.655Zm4.045-2.427A26.8,26.8,0,0,0,127.274-45.9a26.229,26.229,0,0,0,9.939-11.21,39.388,39.388,0,0,0,3.64-17.567,44.118,44.118,0,0,0-4.045-19.3,31.475,31.475,0,0,0-11.384-13.175,30.937,30.937,0,0,0-17.162-4.738q-12.713,0-19.878,8.206T81.22-81.145a47.606,47.606,0,0,0,4.045,19.82,33.89,33.89,0,0,0,11.326,14.1A27.946,27.946,0,0,0,113.117-42.082Zm108.29-58.479q0-11.326-10.055-11.326-.347,0-.347-.693t.347-.693l4.97.116q4.16.231,6.588.231,1.965,0,5.663-.231l4.854-.116q.231,0,.231.693t-.231.693q-9.246,0-9.246,11.326v32.822q0,13.291-7.4,20.745t-19.878,7.454a31.874,31.874,0,0,1-14.966-3.352A23.962,23.962,0,0,1,172-52.425a28.788,28.788,0,0,1-3.525-14.5v-36.983a13.777,13.777,0,0,0-.693-5.085,4.07,4.07,0,0,0-2.716-2.254,23.337,23.337,0,0,0-6.414-.636q-.231,0-.231-.693t.231-.693l5.663.116q4.854.231,7.859.231,3.236,0,8.09-.231l5.547-.116q.347,0,.347.693t-.347.693a21.565,21.565,0,0,0-6.356.693,4.232,4.232,0,0,0-2.774,2.369,14.272,14.272,0,0,0-.693,5.143v32.706q0,13.522,6.183,20.745t17.278,7.223q10.4,0,16.18-6.53t5.779-18.087ZM356.855-42.428q.347,0,.347.693t-.347.693q-3.583,0-5.663-.116l-7.974-.116-7.4.116q-1.849.116-5.2.116-.231,0-.231-.693t.231-.693a19.812,19.812,0,0,0,5.836-.636A3.848,3.848,0,0,0,339-45.318a12.618,12.618,0,0,0,.4-5.085l-2.08-52.585-26.35,61.137a.932.932,0,0,1-.925.462,1.437,1.437,0,0,1-1.04-.462l-28.43-60.443-1.04,48.655q-.116,6.125,2.08,8.668t7.743,2.543q.231,0,.231.693t-.231.693q-3.236,0-4.97-.116l-6.241-.116-6.01.116q-1.618.116-4.623.116-.231,0-.231-.693t.231-.693q4.854,0,6.992-2.6t2.254-8.61l1.04-53.625a11.207,11.207,0,0,0-9.477-4.623q-.231,0-.231-.693t.231-.693l4.276.116q1.156.116,3.236.116t3.525-.116q1.445-.116,2.254-.116a3.19,3.19,0,0,1,2.485,1.1,25.027,25.027,0,0,1,2.831,4.912l25.772,54.318L337.9-110.384q1.271-2.889,3.467-2.889.578,0,1.676.116t2.947.116l5.432-.116q1.271-.116,3.814-.116.347,0,.347.693t-.347.693q-5.779,0-8.263,1.676t-2.369,6.3L346.916-50.4a14.315,14.315,0,0,0,.867,5.2,4.071,4.071,0,0,0,2.716,2.2A24.841,24.841,0,0,0,356.855-42.428Zm83.558,0q.462,0,.462.693t-.462.693q-2.2,0-6.819-.231t-6.7-.231q-2.543,0-6.472.231-3.7.231-5.663.231-.462,0-.462-.693t.462-.693A17.612,17.612,0,0,0,421-43.237a2.826,2.826,0,0,0,1.965-2.774,13.933,13.933,0,0,0-1.5-4.97L411.174-72.823H383.668l-7.281,17.1a17.761,17.761,0,0,0-1.618,6.356A5.671,5.671,0,0,0,377.6-44.1q2.831,1.676,8.494,1.676.578,0,.578.693t-.578.693q-2.08,0-6.01-.231-4.392-.231-7.628-.231-3,0-6.934.231-3.467.231-5.779.231-.578,0-.578-.693t.578-.693a11.446,11.446,0,0,0,5.49-1.213,12.507,12.507,0,0,0,4.276-4.276,56.108,56.108,0,0,0,4.449-8.841l24.385-57.554a.9.9,0,0,1,.809-.347q.578,0,.693.347l27.275,57.439q3.929,8.552,6.7,11.5A8.747,8.747,0,0,0,440.413-42.428ZM384.592-75.135h25.541l-13.522-28.546ZM514.84-42.428q.347,0,.347.693t-.347.693H501.9q-.924,0-3.294.058t-6.645-5.894q-4.276-5.952-8.206-10.921L466.07-80.1l-3.814,3.7v26a14.272,14.272,0,0,0,.693,5.143,3.882,3.882,0,0,0,2.716,2.254,25.575,25.575,0,0,0,6.414.578q.347,0,.347.693t-.347.693q-3.467,0-5.547-.116l-8.09-.116-7.859.116q-2.08.116-5.779.116-.231,0-.231-.693t.231-.693a25.574,25.574,0,0,0,6.414-.578,4.062,4.062,0,0,0,2.774-2.254,13.263,13.263,0,0,0,.751-5.143v-53.509A13.777,13.777,0,0,0,454.05-109a4.07,4.07,0,0,0-2.716-2.254,23.337,23.337,0,0,0-6.414-.636q-.231,0-.231-.693t.231-.693l5.779.116q4.854.231,7.743.231,3.352,0,8.206-.231l5.432-.116q.347,0,.347.693t-.347.693a20.951,20.951,0,0,0-6.3.693,4.42,4.42,0,0,0-2.774,2.369,13.263,13.263,0,0,0-.751,5.143V-79.3l24.732-24.617q3.814-3.814,3.814-5.663,0-2.311-6.819-2.311-.231,0-.231-.693t.231-.693l4.97.116q4.623.231,8.437.231t7.974-.231l4.276-.116q.347,0,.347.693t-.347.693a27.632,27.632,0,0,0-10.055,2.08,29.817,29.817,0,0,0-9.939,6.588l-18.26,17.913L488.028-64.04a182.39,182.39,0,0,0,12.886,15.486q4.449,4.507,6.876,5.316A23.506,23.506,0,0,0,514.84-42.428Zm55.936-15.833q0-.231.462-.231a1.7,1.7,0,0,1,.636.116q.289.116.289.347a107.847,107.847,0,0,0-1.04,15.255,1.829,1.829,0,0,1-.4,1.329,2.024,2.024,0,0,1-1.445.4H520.85q-.231,0-.231-.693t.231-.693a25.574,25.574,0,0,0,6.414-.578,4.062,4.062,0,0,0,2.774-2.254,13.265,13.265,0,0,0,.751-5.143v-53.509a12.808,12.808,0,0,0-.751-5.085,4.269,4.269,0,0,0-2.774-2.254,23.337,23.337,0,0,0-6.414-.636q-.231,0-.231-.693t.231-.693h46.459a.919.919,0,0,1,1.04,1.04l.231,14.215q0,.347-.578.4t-.693-.289q-.347-6.125-3.7-9.535a11.916,11.916,0,0,0-8.9-3.409h-7.05a20.351,20.351,0,0,0-5.952.636,4.276,4.276,0,0,0-2.658,2.2,11.236,11.236,0,0,0-.751,4.681v23.461h14.1q5.547,0,7.917-1.849t2.369-6.241q0-.231.693-.231t.693.231l-.116,9.361q0,3.352.116,5.085l.116,5.547q0,.231-.693.231t-.693-.231q0-5.085-2.485-7.281t-8.263-2.2H538.3v26.581a12.012,12.012,0,0,0,.693,4.738,3.9,3.9,0,0,0,2.543,2.08,21.02,21.02,0,0,0,5.779.578h9.246a12.17,12.17,0,0,0,9.246-3.929Q569.505-51.327,570.777-58.262Z" transform="translate(5.46 45.72) rotate(90)" fill="#3ba2d8"/>
  </g>
</svg>
